<svg width="447" height="132" viewBox="0 0 447 132" fill="none" xmlns="http://www.w3.org/2000/svg">
<path d="M66.034 1C38.892 1 30.954 1.028 29.411 1.156C23.841 1.619 20.375 2.496 16.599 4.376C13.689 5.821 11.394 7.496 9.12899 9.844C5.00399 14.126 2.50399 19.394 1.59899 25.656C1.15899 28.696 1.03099 29.316 1.00499 44.844C0.994994 50.02 1.00499 56.832 1.00499 65.969C1.00499 93.089 1.03499 101.019 1.16499 102.559C1.61499 107.979 2.46499 111.389 4.26499 115.119C7.70499 122.259 14.275 127.619 22.015 129.619C24.695 130.309 27.655 130.689 31.455 130.869C33.065 130.939 49.475 130.989 65.895 130.989C82.315 130.989 98.735 130.969 100.305 130.889C104.705 130.682 107.26 130.339 110.085 129.609C117.875 127.599 124.325 122.319 127.835 115.079C129.6 111.439 130.495 107.899 130.9 102.762C130.988 101.642 131.025 83.785 131.025 65.952C131.025 48.116 130.985 30.292 130.897 29.172C130.487 23.952 129.592 20.442 127.77 16.732C126.275 13.695 124.615 11.427 122.205 9.108C117.904 5 112.644 2.5 106.376 1.596C103.339 1.157 102.734 1.027 87.194 1H66.034Z" fill="url(#paint0_radial_3_11)"/>
<path d="M66.034 1C38.892 1 30.954 1.028 29.411 1.156C23.841 1.619 20.375 2.496 16.599 4.376C13.689 5.821 11.394 7.496 9.12899 9.844C5.00399 14.126 2.50399 19.394 1.59899 25.656C1.15899 28.696 1.03099 29.316 1.00499 44.844C0.994994 50.02 1.00499 56.832 1.00499 65.969C1.00499 93.089 1.03499 101.019 1.16499 102.559C1.61499 107.979 2.46499 111.389 4.26499 115.119C7.70499 122.259 14.275 127.619 22.015 129.619C24.695 130.309 27.655 130.689 31.455 130.869C33.065 130.939 49.475 130.989 65.895 130.989C82.315 130.989 98.735 130.969 100.305 130.889C104.705 130.682 107.26 130.339 110.085 129.609C117.875 127.599 124.325 122.319 127.835 115.079C129.6 111.439 130.495 107.899 130.9 102.762C130.988 101.642 131.025 83.785 131.025 65.952C131.025 48.116 130.985 30.292 130.897 29.172C130.487 23.952 129.592 20.442 127.77 16.732C126.275 13.695 124.615 11.427 122.205 9.108C117.904 5 112.644 2.5 106.376 1.596C103.339 1.157 102.734 1.027 87.194 1H66.034Z" fill="url(#paint1_radial_3_11)"/>
<path d="M66.004 18C52.968 18 51.332 18.057 46.212 18.29C41.102 18.524 37.614 19.333 34.562 20.52C31.405 21.746 28.727 23.386 26.059 26.055C23.389 28.723 21.749 31.401 20.519 34.557C19.329 37.61 18.519 41.099 18.289 46.207C18.06 51.327 18 52.964 18 66C18 79.036 18.058 80.667 18.29 85.787C18.525 90.897 19.334 94.385 20.52 97.437C21.747 100.594 23.387 103.272 26.056 105.94C28.723 108.61 31.401 110.254 34.556 111.48C37.61 112.667 41.099 113.476 46.208 113.71C51.328 113.943 52.963 114 65.998 114C79.035 114 80.666 113.943 85.786 113.71C90.896 113.476 94.388 112.667 97.442 111.48C100.598 110.254 103.272 108.61 105.939 105.94C108.609 103.272 110.249 100.594 111.479 97.438C112.659 94.385 113.469 90.896 113.709 85.788C113.939 80.668 113.999 79.036 113.999 66C113.999 52.964 113.939 51.328 113.709 46.208C113.469 41.098 112.659 37.61 111.479 34.558C110.249 31.401 108.609 28.723 105.939 26.055C103.269 23.385 100.599 21.745 97.439 20.52C94.379 19.333 90.889 18.524 85.779 18.29C80.659 18.057 79.029 18 65.989 18H66.004ZM61.698 26.65C62.976 26.648 64.402 26.65 66.004 26.65C78.82 26.65 80.339 26.696 85.4 26.926C90.08 27.14 92.62 27.922 94.312 28.579C96.552 29.449 98.149 30.489 99.828 32.169C101.508 33.849 102.548 35.449 103.42 37.689C104.077 39.379 104.86 41.919 105.073 46.599C105.303 51.659 105.353 53.179 105.353 65.989C105.353 78.799 105.303 80.319 105.073 85.379C104.859 90.059 104.077 92.599 103.42 94.289C102.55 96.529 101.508 98.124 99.828 99.803C98.148 101.483 96.553 102.523 94.312 103.393C92.622 104.053 90.08 104.833 85.4 105.047C80.34 105.277 78.82 105.327 66.004 105.327C53.187 105.327 51.668 105.277 46.608 105.047C41.928 104.831 39.388 104.049 37.695 103.392C35.455 102.522 33.855 101.482 32.175 99.802C30.495 98.122 29.455 96.526 28.583 94.285C27.926 92.595 27.143 90.055 26.93 85.375C26.7 80.315 26.654 78.795 26.654 65.977C26.654 53.159 26.7 51.647 26.93 46.587C27.144 41.907 27.926 39.367 28.583 37.675C29.453 35.435 30.495 33.835 32.175 32.155C33.855 30.475 35.455 29.435 37.695 28.563C39.387 27.903 41.928 27.123 46.608 26.908C51.036 26.708 52.752 26.648 61.698 26.638V26.65Z" fill="white"/>
<path d="M81.998 80.6786C79.7532 80.6786 77.6417 79.8075 76.0542 78.2262L67.472 69.6731C66.8694 69.071 65.8193 69.0728 65.2169 69.6731L56.6033 78.2575C55.0159 79.8388 52.9044 80.7099 50.6596 80.7099H48.9683L59.838 91.5422C63.2325 94.9251 68.7364 94.9251 72.1312 91.5422L83.0317 80.6786H81.998Z" fill="white"/>
<path d="M50.6591 50.3614C52.904 50.3614 55.0155 51.2319 56.603 52.8123L65.2167 61.3928C65.837 62.0109 66.8499 62.0132 67.4718 61.3921L76.0542 52.8436C77.6417 51.2632 79.7531 50.3926 81.998 50.3926H83.0318L72.1313 39.5359C68.7362 36.1547 63.2322 36.1547 59.8377 39.5359L48.9683 50.3614L50.6591 50.3614Z" fill="white"/>
<path d="M92.4194 59.3311L85.7422 52.6773C85.5952 52.7359 85.436 52.7726 85.2679 52.7726H82.232C80.6625 52.7726 79.126 53.407 78.017 54.513L69.3179 63.1819C68.5038 63.9931 67.4341 64.399 66.3654 64.399C65.2957 64.399 64.2268 63.9931 63.4129 63.1827L54.681 54.4813C53.5719 53.375 52.0355 52.7409 50.466 52.7409H46.733C46.5738 52.7409 46.425 52.7035 46.2845 52.6508L39.5808 59.3311C36.1397 62.7602 36.1397 68.3194 39.5808 71.7485L46.2843 78.4286C46.425 78.3759 46.5738 78.3385 46.733 78.3385H50.466C52.0355 78.3385 53.5719 77.7043 54.681 76.5983L63.4121 67.8977C64.9903 66.3264 67.7413 66.3259 69.3179 67.8985L78.017 76.5666C79.126 77.6726 80.6625 78.307 82.232 78.307H85.2679C85.436 78.307 85.5952 78.3436 85.7422 78.4023L92.4194 71.7485C95.8602 68.3194 95.8602 62.7602 92.4194 59.3311Z" fill="white"/>
<path d="M406.842 47.8728C406.277 47.8403 405.759 47.5903 405.383 47.1692L403.348 44.8915C403.205 44.7312 402.941 44.7164 402.781 44.8588L400.49 46.8952C400.068 47.2703 399.524 47.459 398.96 47.4264L398.534 47.4019L401.111 50.2866C401.916 51.1875 403.3 51.2673 404.203 50.4648L407.102 47.8878L406.842 47.8728Z" fill="black"/>
<path d="M399.399 39.7858C399.964 39.8183 400.482 40.0681 400.858 40.489L402.901 42.7741C403.048 42.9387 403.302 42.954 403.468 42.8066L405.75 40.7788C406.172 40.404 406.716 40.2154 407.281 40.2479L407.541 40.2629L404.956 37.3716C404.151 36.4711 402.767 36.3913 401.864 37.1934L398.974 39.7613L399.399 39.7858Z" fill="black"/>
<path d="M409.772 42.6493L408.189 40.8774C408.151 40.89 408.111 40.8969 408.069 40.8945L407.305 40.8505C406.91 40.8277 406.515 40.9652 406.22 41.2276L403.906 43.284C403.69 43.4764 403.415 43.5631 403.146 43.5476C402.877 43.5321 402.614 43.4144 402.421 43.1986L400.351 40.8813C400.088 40.5868 399.711 40.4048 399.316 40.3821L398.377 40.328C398.337 40.3257 398.3 40.3141 398.265 40.2988L396.483 41.8835C395.568 42.6969 395.487 44.0965 396.303 45.0097L397.892 46.7887C397.928 46.7774 397.966 46.7702 398.006 46.7725L398.945 46.8266C399.34 46.8494 399.736 46.712 400.031 46.4496L402.353 44.3857C402.772 44.0129 403.464 44.0527 403.838 44.4714L405.9 46.7799C406.163 47.0744 406.54 47.2564 406.935 47.2791L407.699 47.3231C407.741 47.3256 407.781 47.3371 407.817 47.354L409.592 45.7756C410.507 44.9621 410.588 43.5625 409.772 42.6493Z" fill="black"/>
<path d="M178.892 81.5455C173.625 82.8182 171.445 86.3636 171.445 89.8182C171.445 94.1818 175.895 97.7273 180.709 97.7273C182.434 97.7273 184.705 97.1818 186.43 96C191.153 92.8182 192.515 84.6364 193.06 75.5455C193.151 74.1818 193.151 72.4545 193.151 70.7273C193.151 68.0909 193.06 64.1818 192.969 61.0909C192.878 57.3636 192.787 53.4545 192.787 49.7273C192.787 44.9091 193.06 39.6364 194.059 34C188.791 39.5455 182.343 47.5455 182.343 56.2727C182.343 60.4545 185.34 63.0909 187.338 67.0909C187.611 67.6364 187.702 68.0909 187.702 68.6364C187.702 71.9091 183.433 75.2727 181.526 76.0909C177.621 73.6364 173.443 69.0909 173.443 61.8182C173.443 55.6364 176.077 49.1818 179.346 43.3636C182.888 37.0909 187.157 32.3636 189.881 30.2727C191.97 28.6364 195.33 28 198.509 28C202.505 28 206.41 28.9091 206.41 30.1818C206.41 30.3636 206.319 30.4545 206.229 30.6364C204.049 33.8182 203.504 40.8182 203.504 48.4545C203.504 57 204.231 65.5455 204.231 74.7273C204.231 84.6364 200.78 93.3636 194.059 99.0909C190.608 102.091 184.16 104 178.347 104C173.08 104 167.812 102.455 164.634 99C162.727 97 162 94.6364 162 92.1818C162 85.8182 167.267 79.3636 174.261 79.3636C174.805 79.3636 178.347 79.4545 178.892 81.5455Z" fill="black"/>
<path d="M244.61 94.2727C245.609 94.2727 246.699 93.7273 247.789 92.8182C250.059 90.9091 252.239 87.5455 252.693 84.7273C253.783 84.9091 255.236 86.1818 255.236 88.4545C255.236 89 255.054 89.8182 254.782 90.5455C253.874 93.0909 251.785 96.0909 249.151 98.0909C247.426 99.4545 245.609 100.273 244.156 100.273C241.613 100.273 235.074 99 232.713 91.7273C231.986 89.2727 231.714 86.6364 231.714 84C231.714 80.6364 232.077 77.0909 232.35 73.6364C232.531 71.1818 232.895 68.2727 232.895 65.9091C232.895 63.2727 232.44 61.3636 230.897 61.3636C230.079 61.3636 228.899 62.7273 227.627 65C225.992 68 224.085 72.5455 222.45 77.3636C219.363 86 216.729 95.6364 216.729 98.3636V99C216.729 99.9091 216.275 100.273 215.639 100.273C213.55 100.273 209.1 96.2727 208.101 90.0909C207.829 88.5455 207.738 87 207.738 85.4545C207.738 82.5455 208.101 77.9091 208.464 73.8182C208.828 68.8182 209.282 63.5455 209.282 59.6364C209.282 57.7273 209.191 56.1818 209.009 54.9091C209.463 54.8182 210.008 54.7273 210.553 54.7273C213.278 54.7273 216.275 56.5455 217.728 59.9091C218.273 61.0909 218.364 63.2727 218.364 65.6364C218.364 70.6364 217.455 76.4545 217.455 79.6364C217.455 79.5455 217.546 79.4545 217.546 79.2727C218 77.5455 219.544 71.6364 221.815 66.0909C223.722 61.4545 225.72 57.1818 227.536 55.9091C228.899 54.9091 230.442 54.4545 232.077 54.4545C236.527 54.4545 241.341 57.8182 242.521 61.6364C242.975 63.1818 243.157 65.1818 243.157 67.3636C243.157 70.6364 242.794 74.3636 242.521 77.6364C242.431 79.1818 241.886 83.5455 241.886 87.3636C241.886 90.2727 241.976 94.2727 244.61 94.2727Z" fill="black"/>
<path d="M258.664 54.4545C259.754 51.3636 263.205 50 267.11 50C267.746 50 270.289 50.2727 272.196 50.8182C273.468 51.1818 274.376 51.9091 274.376 52.6364C274.376 53.8182 272.196 54.0909 271.288 55.2727C270.562 56.1818 270.107 57.6364 270.107 58.9091C270.107 59.7273 270.289 60.5455 270.743 61.3636C272.378 64.3636 274.376 68.1818 274.376 68.1818C277.1 73.6364 280.097 78.7273 280.097 85.3636C280.097 87.9091 279.371 91.2727 277.1 95.6364C279.098 94.4545 280.461 93.7273 283.095 91.6364C285.547 89.6364 287 87.3636 287.999 84.7273C288.998 85.0909 290.542 85.8182 290.542 88.3636C290.542 91.6364 288.634 94 286.273 95.9091C281.732 99.5455 274.739 101.636 270.198 101.636C262.751 101.636 252.398 99.4545 248.674 92C248.039 90.7273 247.766 89.2727 247.766 87.8182C247.766 85.3636 248.583 83 251.126 82.0909C251.217 82.2727 251.399 82.5455 251.671 82.8182C252.943 80 254.305 76.6364 255.486 72.8182C256.757 68.8182 257.938 64.5455 258.755 60.4545C258.483 59.2727 258.301 58.0909 258.301 57C258.301 56.0909 258.392 55.2727 258.664 54.4545ZM259.663 78.0909C258.21 82.2727 255.94 86.5455 255.122 89.1818C255.576 91.0909 261.571 95 265.476 95C266.111 95 266.656 94.9091 267.201 94.6364C268.745 93.8182 269.29 92 269.29 89.8182C269.29 85.9091 267.565 80.7273 266.475 78C265.294 75 263.932 72.0909 262.388 69.2727C261.571 72.1818 260.662 75.1818 259.663 78.0909Z" fill="black"/>
<path d="M298.69 100.091C292.151 100.091 289.063 96.0909 287.428 91.3636C286.793 89.5455 286.611 86.2727 286.611 81.6364C286.611 76.1818 286.883 69.0909 287.247 61.8182C287.247 60.8182 287.337 59.2727 287.428 58.0909C284.25 58 281.798 57.8182 281.343 57.8182C281.343 57.8182 280.98 56.6364 280.98 55.5455C280.98 54.8182 281.162 54.1818 281.707 54C282.978 53.6364 285.067 53.4545 287.519 53.3636C287.61 50.9091 287.61 48.9091 287.61 45.9091C287.61 41.5455 287.61 38.9091 288.518 36.0909C289.063 35.5455 289.88 35.2727 290.789 35.2727C293.422 35.2727 296.783 37.8182 298.236 43.9091C298.417 44.6364 298.508 46.2727 298.508 48.7273C298.508 50.0909 298.508 51.5455 298.417 53.1818C300.143 53.1818 301.687 53.2727 303.14 53.2727C304.865 53.2727 306.319 53.1818 307.318 53C307.499 53.4545 307.59 54 307.59 54.4545C307.59 55.9091 306.5 57 303.412 57.5455C302.05 57.8182 300.143 58 298.054 58.0909C297.872 59.9091 297.6 61.8182 297.237 63.6364C296.419 70.9091 295.965 77.1818 295.965 82.3636C295.965 88.2727 296.692 92.6364 298.326 93.9091C298.962 94.4545 299.689 94.6364 300.506 94.6364C304.139 94.6364 308.68 89.7273 309.588 84.4545C310.587 84.5455 312.131 85.7273 312.131 88.2727C312.131 89 312.04 89.9091 311.586 91.0909C309.316 97.1818 304.23 100.091 298.69 100.091Z" fill="black"/>
<path d="M344.581 93.9091C345.035 94.0909 345.398 94.2727 345.852 94.2727C349.122 94.2727 352.845 87.8182 353.663 84.7273C354.662 85 355.933 86.1818 355.933 88.5455C355.933 89.1818 355.842 89.8182 355.661 90.5455C354.117 95.0909 349.576 100 343.945 100C341.765 100 338.678 98.8182 336.77 97.3636C335.317 96.2727 334.137 94.8182 333.773 93.2727C332.956 89.6364 332.684 87.3636 332.684 85.0909C332.684 83.9091 332.774 82.7273 332.865 81.2727C332.865 80.9091 332.956 80.5455 332.956 80.1818C331.685 84.5455 327.325 97.3636 321.604 99.3636C320.786 99.6364 319.969 99.7273 319.242 99.7273C316.155 99.7273 313.158 97.6364 310.978 94.1818C308.526 90.3636 306.891 84.8182 306.709 79V78C306.709 68.7273 310.433 57.5455 317.971 54.5455C319.515 53.9091 321.15 53.6364 322.784 53.6364C327.234 53.6364 331.594 55.8182 334.318 59.7273C334.5 58.7273 334.591 57.8182 334.682 56.4545C334.772 55.5455 335.408 55.0909 336.407 55.0909C339.222 55.0909 344.308 58.3636 344.399 62.3636C344.399 63.2727 344.218 65.5455 343.945 68.2727C343.4 73.4545 342.764 80.4545 342.764 85.7273C342.764 90 343.219 93.2727 344.581 93.9091ZM320.968 91.7273C322.33 91.7273 323.965 89.9091 325.6 87.0909C328.506 82.0909 331.412 73.7273 333.047 66.3636C332.774 63.4545 330.413 59.3636 327.416 59.3636C326.417 59.3636 325.327 59.8182 324.237 60.9091C320.514 64.8182 318.334 75.2727 318.334 82.7273C318.334 87.3636 319.606 91.7273 320.968 91.7273Z" fill="black"/>
<path d="M352.425 72.8182C351.517 72 350.881 70.9091 350.881 70.0909C350.881 69.5455 351.154 69.0909 352.062 69.0909C352.698 69.0909 353.878 69.1818 355.331 69.1818H356.421C356.694 61.9091 357.057 54.2727 357.693 41.4545C351.79 44.0909 346.976 47.6364 345.795 50.1818C343.616 49.4545 341.709 46.6364 341.709 43.7273C341.709 42.2727 342.163 40.6364 343.434 39C347.067 34.2727 356.421 32 365.957 32C373.586 32 381.669 33.5455 385.846 36.3636C391.477 40.1818 393.838 45.0909 393.838 49.6364C393.838 54.9091 390.932 60.1818 386.482 64.5455C381.76 69.2727 374.222 72.3636 367.319 73.8182V78C367.319 86.9091 367.501 96.4545 367.864 100.364C367.229 100.455 366.684 100.455 366.048 100.455C362.415 100.455 358.964 98.8182 357.602 95.6364C356.603 93.4545 356.24 87.7273 356.24 80.3636V74.6364C355.422 74.5455 353.788 74 352.425 72.8182ZM367.501 65.9091C367.501 66.2727 367.41 66.6364 367.41 67C370.771 65.7273 374.313 63.7273 377.582 60.6364C380.942 57.4545 383.394 51.9091 383.394 46.9091C383.394 40.6364 378.49 37.9091 372.314 37.9091C370.226 37.9091 368.046 38.1818 365.866 38.7273L366.23 39.5455C367.229 41.8182 367.774 48.0909 367.774 54.3636C367.774 57.7273 367.592 61.8182 367.501 65.9091Z" fill="black"/>
<path d="M395.624 92.6364C394.352 88.8182 394.261 85.6364 394.261 82.1818C394.261 77.8182 394.715 73 395.079 68.0909C395.533 63 396.169 57.7273 396.169 52.4545H396.895C399.438 52.4545 403.071 53.7273 405.069 58C405.886 59.8182 406.159 61.9091 406.159 64.2727C406.159 66.6364 405.886 69.2727 405.704 72.0909C405.341 76.7273 404.796 81.3636 404.796 86.2727C404.796 89 404.887 91.4545 405.886 92.7273C406.34 93.3636 407.067 93.6364 407.975 93.6364C408.883 93.6364 410.155 92.8182 411.063 91.9091C413.424 89.7273 415.24 85.9091 415.513 84.6364C416.603 84.6364 417.965 86.1818 417.965 87.7273C417.965 89.1818 417.329 91.2727 416.421 92.9091C413.878 97.4545 410.336 100.091 406.431 100.091C400.8 100.091 396.986 96.6364 395.624 92.6364Z" fill="black"/>
<path d="M438.645 53.5455C439.099 53.1818 439.553 53 440.098 53C440.552 53 441.006 53.0909 441.369 53.2727C442.368 53.6364 443.186 54.5455 443.186 55.1818C443.186 55.2727 443.186 55.4545 443.095 55.5455C442.459 56.7273 439.734 60.1818 436.011 65C433.196 68.6364 429.109 74.7273 429.109 74.7273C429.744 76.5455 431.107 80.7273 431.561 81.9091C432.832 85.3636 434.376 89.7273 437.736 91.0909C438.463 91.3636 439.099 91.5455 439.825 91.5455C442.55 91.5455 444.73 89.5455 446.001 88.0909C446.455 88.1818 447 88.6364 447 89.5455C447 90.2727 446.546 91.3636 445.456 92.6364C443.821 94.5455 441.914 95.9091 440.189 96.9091C438.281 98.0909 435.738 99.0909 433.286 99.0909C432.197 99.0909 431.198 98.9091 430.199 98.4545C426.838 97 424.114 90.9091 421.934 85.1818C421.934 85.1818 418.846 89.7273 417.393 92.1818L413.579 98.8182C413.397 99.0909 413.125 99.2727 412.761 99.2727C412.216 99.2727 411.581 99 410.945 98.5455C409.764 97.8182 408.765 96.6364 408.765 95.8182C408.765 95.5455 408.947 95.0909 409.219 94.7273C410.582 92.7273 412.761 90.0909 414.305 88C416.394 85.0909 418.301 82.7273 420.118 80.0909L415.94 67.9091C414.578 63.7273 413.215 59.0909 412.307 56.8182C413.215 56 415.395 54.5455 417.938 54.5455C419.3 54.5455 421.662 54.9091 423.024 57.4545C424.568 60.4545 425.93 63.9091 427.383 69.1818C427.383 69.1818 430.017 65.3636 431.742 62.7273C434.83 58.0909 437.736 54.2727 438.645 53.5455Z" fill="black"/>
<defs>
<radialGradient id="paint0_radial_3_11" cx="0" cy="0" r="1" gradientUnits="userSpaceOnUse" gradientTransform="translate(35.5385 141.001) rotate(-90) scale(128.829 119.853)">
<stop stop-color="#FFDD55"/>
<stop offset="0.1" stop-color="#FFDD55"/>
<stop offset="0.5" stop-color="#FF543E"/>
<stop offset="1" stop-color="#C837AB"/>
</radialGradient>
<radialGradient id="paint1_radial_3_11" cx="0" cy="0" r="1" gradientUnits="userSpaceOnUse" gradientTransform="translate(-20.7792 10.3642) rotate(78.6776) scale(57.5876 237.438)">
<stop stop-color="#3771C8"/>
<stop offset="0.128" stop-color="#3771C8"/>
<stop offset="1" stop-color="#6600FF" stop-opacity="0"/>
</radialGradient>
</defs>
</svg>
